<svg width="95" height="54" viewBox="0 0 95 54" fill="none" xmlns="http://www.w3.org/2000/svg">
<path d="M53 0.285156C64.404 1.46172 74.5771 6.25033 82.0547 13.3418C79.1383 12.4954 74.3851 12.5867 73.7988 21.8125C71.8292 52.8076 69.8301 46.3076 75.8301 39.3076C81.0647 33.2005 80.7648 32.9173 91.1084 25.6328C93.6103 30.804 95 36.5064 95 42.5C95 59 94.5 52 47.5 52C0.5 52 -1.98549e-09 58 0 42.5C7.85755e-10 36.3659 1.45442 30.5363 4.06836 25.2695C15.2198 33.0986 14.7712 33.2414 20.1357 39.5C26.1357 46.5 24.1366 53 22.167 22.0049C21.4016 9.96024 13.536 13.4884 11.9248 14.3418C19.2722 6.91615 29.4771 1.80837 41 0.397461V0.5L46.5 24L53 0.5V0.285156Z" fill="white"/>
</svg>
